:SAMPLES-PER-SECOND 30
:FULLY-SPECIFIED
:DEGREES
457
root  -2.08448 40.9689 0.790358 -70.0865 -89.8035 70.2758
RightUpLeg  2.78706 -2.16625 -2.12273
RightLeg  -1.7039 -19.345 1.24371
RightFoot  0.165518 -0.376962 3.75037
RightToes  -3.13006e-008 1.75238e-005 3.56266e-009
Spine  -5.36082 -1.93236 -4.19568
Spine1  13.0593 -2.23131 1.77099
HEad  0.0368799 -12.75 -2.60022
LeftShoulder1  3.30277 -7.2404 -24.5514
LeftArm  -33.3603 -32.6996 -42.3716
LeftForeArm  48.6796 -74.7638 -38.6005
LeftHand  -0.15834 -3.53348 2.31179
RightShoulder  3.07454 6.87196 23.4693
RightArm  -34.9129 27.1788 31.0506
RightForeArm  133.588 77.1428 130.009
RightHand  -0.104172 7.89227 -1.29152
LeftUpLeg  1.68718 1.08862 2.0629
LeftLeg  -1.50693 12.9412 -1.09018
LeftFoot  0.428686 0.285652 -2.79714
LeftToes  4.76866e-008 1.46233e-008 1.30548e-009
458
root  -2.15347 40.9733 0.935879 -9.16958 -89.1859 9.41767
RightUpLeg  3.03932 -2.29457 -2.38012
RightLeg  -1.98453 -19.8392 1.27292
RightFoot  0.291137 -0.398847 3.93253
RightToes  -3.13006e-008 1.75238e-005 3.56266e-009
Spine  -5.06119 -1.97263 -5.40933
Spine1  11.9751 -2.91453 4.39381
HEad  -0.322399 -12.9408 1.15998
LeftShoulder1  3.00678 -6.75437 -23.0525
LeftArm  -30.8845 -37.0058 -41.9063
LeftForeArm  53.794 -75.8553 -41.957
LeftHand  -0.168951 -4.1229 2.31139
RightShoulder  3.11676 7.02583 23.4341
RightArm  -37.9717 26.965 31.6216
RightForeArm  129.846 77.2636 128.545
RightHand  -0.187873 7.17789 -2.08367
LeftUpLeg  1.7407 1.0386 1.83719
LeftLeg  -1.67442 12.3719 -1.26292
LeftFoot  0.388048 0.253517 -2.49106
LeftToes  4.76866e-008 1.46233e-008 1.30548e-009
459
root  -2.21182 40.9725 1.08547 -8.44987 -88.6414 8.69236
RightUpLeg  3.3018 -2.51305 -2.66955
RightLeg  -2.16914 -20.0962 1.35973
RightFoot  0.366808 -0.421008 4.12812
RightToes  -3.13006e-008 1.75238e-005 3.56266e-009
Spine  -4.19035 -1.86514 -6.67611
Spine1  10.1848 -3.43663 7.19562
HEad  -0.0966584 -12.726 5.17286
LeftShoulder1  2.79482 -6.3316 -22.1036
LeftArm  -27.9859 -40.1257 -42.0463
LeftForeArm  61.59 -77.3376 -47.9719
LeftHand  -0.232182 -5.34548 2.82439
RightShoulder  3.12336 6.97956 23.6428
RightArm  -40.5951 25.9175 32.8136
RightForeArm  130.045 77.224 128.763
RightHand  -0.320156 7.65364 -3.20471
LeftUpLeg  1.69049 0.967409 1.61026
LeftLeg  -1.48405 11.942 -1.30303
LeftFoot  0.21053 0.226239 -2.25012
LeftToes  4.76866e-008 1.46233e-008 1.30548e-009
460
root  -2.27373 40.9714 1.22889 -9.06104 -88.1556 9.19125
RightUpLeg  3.62434 -2.63441 -2.93847
RightLeg  -2.23537 -20.4074 1.27339
RightFoot  0.357021 -0.448625 4.39972
RightToes  -3.13006e-008 1.75238e-005 3.56266e-009
Spine  -4.15965 -1.68467 -7.75814
Spine1  9.87034 -3.74019 9.39234
HEad  -0.386981 -12.9805 9.2654
LeftShoulder1  2.6536 -6.09714 -21.2746
LeftArm  -24.8758 -42.9489 -43.3888
LeftForeArm  71.7877 -78.7739 -56.4891
LeftHand  -0.084963 -5.39209 1.2313
RightShoulder  3.19744 6.93942 24.5006
RightArm  -43.2359 24.0328 34.1681
RightForeArm  131.245 76.8153 130.755
RightHand  -0.491584 8.04933 -4.61494
LeftUpLeg  1.86066 0.840298 1.30415
LeftLeg  -1.46925 11.61 -1.32993
LeftFoot  0.105324 0.197593 -1.97777
LeftToes  4.76866e-008 1.46233e-008 1.30548e-009
461
root  -2.3392 40.9654 1.37108 -8.20903 -87.8034 8.12256
RightUpLeg  4.0591 -2.71537 -3.13543
RightLeg  -2.31827 -20.6205 1.17172
RightFoot  0.379402 -0.464633 4.54972
RightToes  -3.13006e-008 1.75238e-005 3.56266e-009
Spine  -4.52566 -1.69598 -8.26224
Spine1  10.2027 -4.11047 10.8155
HEad  -0.376681 -12.9169 13.7337
LeftShoulder1  2.53993 -5.82157 -20.8463
LeftArm  -21.3668 -44.2075 -44.4762
LeftForeArm  87.0425 -80.1039 -70.5712
LeftHand  -0.0685595 -5.75966 1.03595
RightShoulder  3.48332 7.42372 25.8286
RightArm  -45.3723 21.1991 35.6445
RightForeArm  132.057 76.2995 132.897
RightHand  -0.663869 8.05251 -6.08355
LeftUpLeg  2.09613 0.904242 1.13963
LeftLeg  -1.29397 11.2351 -1.45106
LeftFoot  -0.130241 0.166974 -1.69412
LeftToes  4.76866e-008 1.46233e-008 1.30548e-009
462
root  -2.41198 40.9562 1.48886 -10.3838 -87.5911 10.0954
RightUpLeg  4.31469 -2.84293 -3.40184
RightLeg  -2.05287 -20.6623 0.945973
RightFoot  0.235154 -0.490291 4.83877
RightToes  -3.13006e-008 1.75238e-005 3.56266e-009
Spine  -5.06478 -1.64898 -9.45688
Spine1  10.8237 -4.60664 13.0259
HEad  -0.637704 -12.9893 17.1025
LeftShoulder1  2.45124 -5.48723 -20.8721
LeftArm  -17.6169 -43.8708 -45.9347
LeftForeArm  111.5 -80.7691 -92.4336
LeftHand  -0.0671923 -6.66674 0.992597
RightShoulder  3.71163 7.69122 27.1542
RightArm  -46.7454 17.9987 37.5455
RightForeArm  132.76 75.8379 134.67
RightHand  -0.922418 8.01463 -8.33562
LeftUpLeg  2.35216 0.862261 0.889186
LeftLeg  -1.13342 11.0858 -1.51154
LeftFoot  -0.35053 0.150655 -1.54393
LeftToes  4.76866e-008 1.46233e-008 1.30548e-009
463
root  -2.48238 40.9484 1.60245 -9.16682 -87.4642 8.57095
RightUpLeg  4.76873 -3.13666 -3.65726
RightLeg  -1.97404 -20.5068 1.05892
RightFoot  0.125811 -0.497164 4.903
RightToes  -3.13006e-008 1.75238e-005 3.56266e-009
Spine  -5.68353 -1.8569 -9.50426
Spine1  11.8537 -5.103 13.6782
HEad  -0.600778 -12.53 20.5267
LeftShoulder1  2.41459 -5.30434 -21.0248
LeftArm  -14.8642 -42.0801 -46.18
LeftForeArm  142.216 -79.8996 -117.64
LeftHand  0.0617454 -7.19728 -0.202496
RightShoulder  3.98679 7.91542 28.9656
RightArm  -47.4414 15.2401 38.957
RightForeArm  130.85 75.8755 134.126
RightHand  -0.931831 8.24101 -8.2814
LeftUpLeg  2.68761 0.957595 0.802997
LeftLeg  -0.897966 10.8554 -1.53596
LeftFoot  -0.634033 0.129632 -1.34313
LeftToes  4.76866e-008 1.46233e-008 1.30548e-009
464
root  -2.52785 40.9388 1.69384 -10.3864 -87.8791 9.50659
RightUpLeg  5.00376 -3.10457 -3.72917
RightLeg  -1.77978 -20.1131 0.840468
RightFoot  0.0430945 -0.510352 5.08027
RightToes  -3.13006e-008 1.75238e-005 3.56266e-009
Spine  -6.3499 -1.83018 -9.32904
Spine1  13.0831 -5.29604 13.9655
HEad  -0.626565 -11.8155 22.7292
LeftShoulder1  2.57805 -5.66409 -21.7891
LeftArm  -13.4316 -39.7634 -44.8194
LeftForeArm  168.985 -77.5405 -136.723
LeftHand  0.229654 -8.3573 -1.5518
RightShoulder  4.24147 8.17176 30.4128
RightArm  -47.67 12.6114 40.0297
RightForeArm  128.852 76.0521 133.067
RightHand  -0.89839 7.83716 -8.22455
LeftUpLeg  3.07274 1.08365 0.746604
LeftLeg  -0.782909 11.1576 -1.61342
LeftFoot  -0.881254 0.118243 -1.23437
LeftToes  4.76866e-008 1.46233e-008 1.30548e-009
465
root  -2.54075 40.9238 1.77228 -14.1718 -88.2568 12.9288
RightUpLeg  5.20407 -3.10043 -3.85385
RightLeg  -1.4226 -19.6663 0.539436
RightFoot  -0.114241 -0.516704 5.16499
RightToes  -3.13006e-008 1.75238e-005 3.56266e-009
Spine  -6.30217 -1.90548 -9.02212
Spine1  13.5736 -5.47236 13.9165
HEad  -0.730555 -10.7871 23.9916
LeftShoulder1  2.56307 -5.5374 -22.0284
LeftArm  -12.5564 -37.5067 -43.7121
LeftForeArm  -175.387 -74.9886 -146.828
LeftHand  0.32063 -9.71231 -2.05617
RightShoulder  4.37815 8.36683 30.9735
RightArm  -47.2206 10.6835 41.0784
RightForeArm  127.628 76.5391 130.975
RightHand  -0.893116 7.9895 -8.08869
LeftUpLeg  3.46145 1.20569 0.64891
LeftLeg  -0.604924 11.4386 -1.7083
LeftFoot  -1.11752 0.109389 -1.1109
LeftToes  4.76866e-008 1.46233e-008 1.30548e-009
466
root  -2.53203 40.9159 1.81925 -19.5618 -88.6015 18.1707
RightUpLeg  5.17966 -3.03021 -3.90984
RightLeg  -1.17921 -19.382 0.288335
RightFoot  -0.188591 -0.528595 5.34801
RightToes  -3.13006e-008 1.75238e-005 3.56266e-009
Spine  -6.42977 -1.93837 -8.97239
Spine1  14.0034 -5.62498 14.119
HEad  -1.40724 -10.3286 24.775
LeftShoulder1  2.57115 -5.48689 -22.2916
LeftArm  -12.6447 -35.8959 -42.7462
LeftForeArm  -172.29 -73.6681 -149.951
LeftHand  0.378677 -10.2019 -2.40171
RightShoulder  4.42579 8.53258 30.8568
RightArm  -46.5123 9.54851 41.8615
RightForeArm  126.927 76.9295 129.236
RightHand  -0.804199 7.78486 -7.43272
LeftUpLeg  3.55315 1.18272 0.527288
LeftLeg  -0.4016 11.8181 -1.68236
LeftFoot  -1.28628 0.108787 -1.09797
LeftToes  4.76866e-008 1.46233e-008 1.30548e-009
467
root  -2.51918 40.9134 1.85058 -25.9477 -88.9448 24.6016
RightUpLeg  4.99546 -2.98522 -3.95245
RightLeg  -1.05518 -19.0357 0.187947
RightFoot  -0.178612 -0.536278 5.47658
RightToes  -3.13006e-008 1.75238e-005 3.56266e-009
Spine  -6.61152 -1.8198 -8.60808
Spine1  14.0441 -5.46199 13.9089
HEad  -2.12 -10.2899 25.1149
LeftShoulder1  2.61766 -5.56826 -22.5648
LeftArm  -13.1527 -35.0435 -42.3648
LeftForeArm  -175.844 -73.435 -149.868
LeftHand  0.359218 -9.67777 -2.35222
RightShoulder  4.34383 8.40263 30.567
RightArm  -45.5667 8.71707 42.3052
RightForeArm  126.034 76.9795 128.799
RightHand  -0.812311 7.64918 -7.57218
LeftUpLeg  3.51371 1.14567 0.45451
LeftLeg  -0.389753 12.2391 -1.68095
LeftFoot  -1.32416 0.110585 -1.10851
LeftToes  4.76866e-008 1.46233e-008 1.30548e-009
468
root  -2.50382 40.9143 1.84225 -28.7399 -89.0898 27.47
RightUpLeg  4.88245 -3.01813 -3.94961
RightLeg  -1.10043 -18.8797 0.276564
RightFoot  -0.146087 -0.529335 5.3874
RightToes  -3.13006e-008 1.75238e-005 3.56266e-009
Spine  -6.88613 -1.77867 -8.52294
Spine1  14.0909 -5.38294 13.8259
HEad  -2.29832 -10.7056 25.0826
LeftShoulder1  2.56926 -5.3994 -22.5667
LeftArm  -14.2695 -34.8233 -43.161
LeftForeArm  -179.585 -73.9243 -148.381
LeftHand  0.286738 -8.87996 -1.94536
RightShoulder  4.30057 8.36007 30.3297
RightArm  -44.9061 8.42171 42.3562
RightForeArm  126.104 77.128 128.176
RightHand  -0.722117 7.79854 -6.70514
LeftUpLeg  3.40413 1.10234 0.453003
LeftLeg  -0.351174 12.4121 -1.62446
LeftFoot  -1.34884 0.11059 -1.08122
LeftToes  4.76866e-008 1.46233e-008 1.30548e-009
469
root  -2.48334 40.9187 1.80135 -26.5834 -89.1907 25.3656
RightUpLeg  4.88984 -2.95407 -3.81556
RightLeg  -1.33133 -18.8849 0.395983
RightFoot  -0.0703917 -0.518575 5.2471
RightToes  -3.13006e-008 1.75238e-005 3.56266e-009
Spine  -7.01933 -1.81214 -8.49657
Spine1  14.0499 -5.33181 13.5878
HEad  -2.24297 -10.8073 24.6641
LeftShoulder1  2.52689 -5.27509 -22.4888
LeftArm  -16.1184 -34.0839 -44.3791
LeftForeArm  179.134 -74.5364 -146.917
LeftHand  0.163011 -9.07775 -0.907024
RightShoulder  4.31266 8.47445 30.0787
RightArm  -44.0112 8.78256 42.128
RightForeArm  125.189 77.3316 127.032
RightHand  -0.802574 7.83988 -7.38579
LeftUpLeg  3.31525 1.09766 0.55542
LeftLeg  -0.333926 12.4625 -1.53776
LeftFoot  -1.33879 0.125925 -1.28612
LeftToes  4.76866e-008 1.46233e-008 1.30548e-009
470
root  -2.47782 40.9261 1.74157 -22.6634 -89.3646 21.3884
RightUpLeg  5.12227 -2.85519 -3.5963
RightLeg  -1.75113 -18.8582 0.60788
RightFoot  0.0564796 -0.504486 5.06192
RightToes  -3.13006e-008 1.75238e-005 3.56266e-009
Spine  -7.31498 -1.82064 -8.39445
Spine1  14.3654 -5.26909 13.2384
HEad  -2.21909 -10.7989 23.8324
LeftShoulder1  2.62273 -5.50935 -22.8209
LeftArm  -18.6462 -33.096 -45.4611
LeftForeArm  175.185 -75.3383 -144.415
LeftHand  0.0509551 -8.24126 -0.0482163
RightShoulder  4.33656 8.57838 29.9638
RightArm  -42.4056 9.95815 41.5152
RightForeArm  121.16 77.6923 124.185
RightHand  -0.930041 7.71787 -8.57446
LeftUpLeg  3.46156 1.15426 0.750309
LeftLeg  -0.497939 12.5298 -1.456
LeftFoot  -1.28115 0.137329 -1.42773
LeftToes  4.76866e-008 1.46233e-008 1.30548e-009
471
root  -2.45016 40.9275 1.66953 -18.929 -89.7071 17.5752
RightUpLeg  5.15323 -2.83081 -3.49779
RightLeg  -1.82203 -18.5404 0.695336
RightFoot  0.0116935 -0.498531 5.00858
RightToes  -3.13006e-008 1.75238e-005 3.56266e-009
Spine  -7.20512 -1.71983 -8.24
Spine1  13.995 -4.97467 12.7081
HEad  -2.0884 -9.94033 22.5052
LeftShoulder1  2.72198 -5.73597 -23.2083
LeftArm  -20.9169 -31.5023 -47.613
LeftForeArm  162.955 -76.8509 -137.784
LeftHand  -0.161819 -7.32997 1.84009
RightShoulder  4.24569 8.48142 29.4872
RightArm  -39.9232 11.836 41.0143
RightForeArm  114.334 78.4868 117.496
RightHand  -0.986868 7.54678 -9.18457
LeftUpLeg  3.63496 1.21694 0.881288
LeftLeg  -0.685295 12.8035 -1.45492
LeftFoot  -1.23767 0.155277 -1.67276
LeftToes  4.76866e-008 1.46233e-008 1.30548e-009
